# xmcd
#
# Track frame offsets:
#	150
#	18836
#	44914
#	61391
#	77261
#	93209
#	105783
#	122667
#	136216
#	154617
#	173303
#	199381
#	215858
#	231728
#	247676
#	260250
#	277134
#	290683
#
# Disc length: 4121 seconds
#
# Revision: 1
# Processed by: cddbd v1.5.2PL0 Copyright (c) Steve Scherf et al.
# Submitted via: audiograbber 1.83.01
#
DISCID=f8101712
DTITLE=Various Artist - PHMC1211
DYEAR=2012
DGENRE=Karaoke
TTITLE0=Darius Rucker - True Believers
TTITLE1=Kenny Chesney - El Cerrito Place
TTITLE2=Steve Holy - Hauled Off And Kissed Me
TTITLE3=Dustin Lynch - Your Plan
TTITLE4=Carolina Chocolate Drops - Country Girl
TTITLE5=Bill Gentry - That Kind Of Love
TTITLE6=Claudia Lee - Take My Hand
TTITLE7=Levi Riggs - There's Still A Place For That
TTITLE8=Benton Blount - That's An American
TTITLE9=Darius Rucker - True Believers (MPX)
TTITLE10=Kenny Chesney - El Cerrito Place (MPX)
TTITLE11=Steve Holy - Hauled Off And Kissed Me (MPX)
TTITLE12=Dustin Lynch - Your Plan (MPX)
TTITLE13=Carolina Chocolate Drops - Country Girl (MPX)
TTITLE14=Bill Gentry - That Kind Of Love (MPX)
TTITLE15=Claudia Lee - Take My Hand (MPX)
TTITLE16=Levi Riggs - There's Still A Place For That (MPX)
TTITLE17=Benton Blount - That's An American (MPX)
EXTD=
EXTT0=
EXTT1=
EXTT2=
EXTT3=
EXTT4=
EXTT5=
EXTT6=
EXTT7=
EXTT8=
EXTT9=
EXTT10=
EXTT11=
EXTT12=
EXTT13=
EXTT14=
EXTT15=
EXTT16=
EXTT17=
PLAYORDER=
